<?xml version="1.0" ?><svg style="enable-background:new 0 0 48 48;" version="1.1" viewBox="0 0 48 48" xml:space="preserve" xmlns="http://www.w3.org/2000/svg" xmlns:xlink="http://www.w3.org/1999/xlink"><g id="Padding__x26__Artboard"/><g id="Icons"><g><path d="M23.94384,22.72425c1.31641-1.76715,4.388-2.51593,5.58942-2.74731    c-1.20209-2.24384-1.48639-3.08295-1.55573-3.42212l-3.98242-2.54297l-3.9751,2.54443    c-0.07166,0.33655-0.35852,1.17261-1.56476,3.42236C19.63653,20.21167,22.6383,20.96125,23.94384,22.72425z M21.63671,17.43348    h1.80975l0.5592-1.72113l0.5592,1.72113h1.80981l-1.46411,1.06372l0.55927,1.72113l-1.46417-1.06366l-1.46411,1.06366    l0.55927-1.72113L21.63671,17.43348z" style="fill:#30302F;"/><path d="M32.99755,40.172c-0.06494,0.11182-0.18213,0.17432-0.30322,0.17432    c-0.05957,0-0.12012-0.01514-0.17529-0.04736" style="fill:none;"/><path d="M27.40325,37.30378l0.17133-1.00793C27.57458,36.29584,27.44415,36.84552,27.40325,37.30378z" style="fill:#30302F;"/><g><path d="M30.91552,28.87708c0.60621-1.59398,0.67479-3.29299,0.63498-4.38299     c-0.02434-0.66641-0.21628-1.30831-0.5497-1.88584c-0.30068-0.52081-0.7047-1.23023-1.11738-1.98289     c-0.95746,0.17175-4.54395,0.93195-5.5802,2.82251c-0.06396,0.11572-0.18359,0.18164-0.30762,0.18164     c-0.01764,0-0.03461-0.01062-0.05225-0.01337c-0.01764,0.00275-0.03461,0.01337-0.05225,0.01337     c-0.12402,0-0.24365-0.06592-0.30762-0.18164c-1.0354-1.88873-4.53619-2.64893-5.47791-2.82214     c-0.44075,0.80384-0.8714,1.55832-1.17686,2.08638c-0.29552,0.51088-0.45809,1.07529-0.48471,1.66488     c-0.04889,1.08274,0.00182,2.84797,0.6302,4.50057c0.37598,0.98633,0.93799,2.07471,1.48193,3.12744     c0.80688,1.56244,1.63495,3.17395,1.92572,4.56934l0.11145,0.87219c0.90619,0.49133,2.1001,0.94617,3.43451,0.94617     c1.06567,0,2.21753-0.29742,3.37543-1.08893c0.04089-0.45825,0.17133-1.00793,0.17133-1.00793     c0.33167-1.33435,1.10681-2.84583,1.86584-4.31232C29.98193,30.93763,30.54199,29.85559,30.91552,28.87708z M22.36035,29.05091     c0.06201-0.18311,0.26172-0.27979,0.44434-0.21777l1.25684,0.4292l1.0918-0.42432     c0.18018-0.07031,0.38281,0.01855,0.45312,0.19922c0.07031,0.18018-0.01904,0.3833-0.19922,0.45312l-1.21094,0.4707     c-0.04102,0.01611-0.08398,0.02393-0.12695,0.02393c-0.03809,0-0.07666-0.00635-0.11328-0.01904l-1.37793-0.4707     C22.3955,29.43274,22.29785,29.23401,22.36035,29.05091z M25.43847,34.17395c-0.39795,0.20166-0.85645,0.26807-1.28857,0.26807     c-0.80859,0-1.52344-0.23291-1.56885-0.24805c-0.18311-0.06104-0.28223-0.25879-0.22168-0.44189s0.2583-0.28564,0.44189-0.22217     c0.01465,0.00439,1.43945,0.46631,2.3208,0.02002c0.17236-0.08984,0.38281-0.01855,0.47021,0.15381     S25.61083,34.08704,25.43847,34.17395z M24.0252,33.12983l-3.00958-0.63159c0,0,1.06274-0.17346,1.42505-0.47992     c0,0,0.91956-0.55731,1.50482,0c0,0,0.61841-0.50476,1.4491,0.05566c0,0,1.02722,0.44592,1.64032,0.47375L24.0252,33.12983z" style="fill:#30302F;"/><path d="M39.10595,35.92102c-0.15039-0.05469-0.32178,0.00146-0.41162,0.13623     c-1.22559,1.85742-2.4082,2.81006-3.51514,2.83057c-1.3667,0.00439-2.28711-1.31201-2.74609-1.95459l-0.15173-0.25702     c0,0-0.10724,0.2384-0.1499,1.0296c-0.04095,0.72174,0.06323,1.5957,0.73914,1.98767     c0.16699,0.09717,0.22412,0.31104,0.12695,0.47852c-0.06494,0.11182-0.18213,0.17432-0.30322,0.17432     c-0.05957,0-0.12012-0.01514-0.17529-0.04736c-1.49591-0.86804-1.08203-3.10907-0.93231-3.73364     c0.00055-0.00378-0.00092-0.0072-0.00031-0.01099c0,0,0.40459-1.19508,2.95658-2.26427     c1.19755-0.50173,2.07581-1.57918,2.20351-2.87129c0.07216-0.73012,0.04882-1.46042,0.0318-1.99334     c-0.00537-0.16797-0.00977-0.31201-0.00977-0.42334c0-0.79834,0.15918-3.51514,0.67188-5.2041     c0.56787-1.84521-0.47949-4.58447-1.2168-5.40186c-0.50195-0.55615-1.3252-2.58887-1.59375-3.30762     c-0.26953-0.85742-0.74414-1.83398-1.29395-2.96484c-0.61719-1.27002-1.31641-2.70898-1.93653-4.39941     c-0.29736-0.81104-0.83301-1.38965-1.5918-1.71973c-1.99805-0.86865-4.85693,0.31445-5.00146,0.37598l-0.81104,0.41406     l-0.83496-0.42529c-0.12012-0.05029-2.97852-1.23486-4.97803-0.36475c-0.75879,0.33008-1.29443,0.90869-1.5918,1.71973     c-0.62012,1.68994-1.31885,3.12842-1.93603,4.39795c-0.5498,1.13135-1.02441,2.10889-1.28809,2.94873     c-0.27441,0.73633-1.09766,2.76904-1.59961,3.3252c0.43719-0.50806,1.28992-0.81165,1.28992-0.81165     c0.85376-0.44977,2.04456-1.26605,2.40198-2.45007c0.05566-0.18457,0.25146-0.28955,0.43604-0.23389     c0.18506,0.05566,0.29004,0.25098,0.23389,0.43604c-0.61761,2.04724-3.12561,3.08478-3.66205,3.28583     c0,0-0.15756,0.05517-0.39462,0.19956c-0.74155,0.45168-1.22689,1.21549-1.44457,2.05604     c-0.25219,0.97378-0.34716,2.04453-0.07835,2.91853c0.51465,1.69531,0.68262,4.44775,0.68262,5.20557     c0,0.11377-0.00488,0.26221-0.01074,0.43506c-0.0183,0.54457-0.04361,1.2959,0.03373,2.04191     c0.13126,1.26606,1.01555,2.29755,2.20684,2.74584c2.48395,0.93472,2.94132,2.35471,2.94132,2.35471     c0.36115,0.8476,0.71576,2.24829-0.33228,3.15393c-0.06641,0.05713-0.14795,0.08545-0.229,0.08545     c-0.09814,0-0.1958-0.04102-0.26465-0.12109c-0.12646-0.14648-0.11035-0.36719,0.03564-0.49365     c0.50012-0.43219,0.50458-1.07837,0.36853-1.65979c-0.08856-0.45386-0.28308-0.80554-0.28308-0.80554l-0.13037,0.18115     c-0.45361,0.64062-1.39307,1.96826-2.71436,1.96826c-0.01123,0-0.02246,0-0.03418-0.00049     c-1.10791-0.01904-2.28955-0.97119-3.5127-2.83008c-0.08936-0.13574-0.26025-0.19336-0.41162-0.13672     c-0.15234,0.05518-0.24707,0.20752-0.22852,0.36865c0.00586,0.05078,0.62695,5.09033,5.1084,5.89551     c0.4834,0.08594,0.95508,0.12842,1.41113,0.12842c1.49121,0,2.81103-0.45459,3.80517-1.32861     c0.22406-0.19684,0.43457-0.40588,0.60339-0.64374c0.75775-1.06738,0.27307-3.28351,0.23596-3.4798     c-0.24023-1.33008-1.08203-2.95947-1.896-4.53564c-0.55225-1.06982-1.12402-2.17578-1.51416-3.19922     c-1.0625-2.79492-0.59473-5.77637-0.57422-5.90186c0.00684-0.04346,0.02197-0.08496,0.04443-0.12256     c0.0083-0.01465,0.86621-1.45898,1.72168-3.03174h0.00049c0.00208-0.00385,0.00354-0.00665,0.00562-0.01044     c0.00092-0.00159,0.00153-0.00323,0.0025-0.00476c1.49768-2.75067,1.70923-3.53503,1.73016-3.74359     c0.01074-0.10645,0.06934-0.20264,0.15967-0.26025l4.29639-2.75c0.11478-0.07347,0.26179-0.07354,0.37665-0.00019     l4.30646,2.75019c0.0918,0.05859,0.15137,0.15723,0.16016,0.26611c0.01703,0.20605,0.21991,0.98383,1.71753,3.73425     c0.00372,0.00586,0.00629,0.01196,0.00964,0.01801c0,0,0.00024,0.00043,0.00037,0.00067     c0.85596,1.57275,1.71387,3.01709,1.72217,3.03174c0.02246,0.0376,0.0376,0.0791,0.04443,0.12256     c0.02051,0.12549,0.48828,3.10693-0.57422,5.90186c-0.38818,1.01611-0.95752,2.11523-1.50781,3.17871     c-0.76318,1.47461-1.55225,2.99902-1.84424,4.27588c-0.06707,0.29875-0.44327,2.08757,0.00231,3.35466     c0.10663,0.30323,0.40999,0.70374,0.64353,0.92461c1.30504,1.23425,3.21918,1.70579,5.36295,1.32424     c4.46973-0.80469,5.10156-5.84375,5.10742-5.89453C39.35254,36.12952,39.2583,35.97669,39.10595,35.92102z M17.8457,12.17493     c-0.17334,0.13867-0.71338,0.98975-1.11426,1.69922c-0.06445,0.11377-0.18311,0.17773-0.30518,0.17773     c-0.05811,0-0.11719-0.01465-0.17188-0.04541c-0.16797-0.09521-0.22754-0.30859-0.13232-0.47705     c0.21094-0.37354,0.92773-1.61475,1.28613-1.90137c0.15234-0.12061,0.37061-0.09668,0.49219,0.05469     C18.02099,11.83411,17.99658,12.05432,17.8457,12.17493z M29.56103,9.77991c-0.12744,0-0.25049-0.06982-0.3125-0.19092     c-0.74512-1.46436-3.80859-0.83545-4.92578-0.47021c-0.18359,0.05859-0.38135-0.04004-0.44141-0.22363     s0.04004-0.38135,0.22363-0.44141c0.18799-0.06104,4.59863-1.47266,5.76758,0.81689     c0.0874,0.17236,0.01904,0.3833-0.15283,0.47119C29.66845,9.7677,29.61425,9.77991,29.56103,9.77991z M30.99999,12.193     c-0.05957,0.03955-0.12646,0.05859-0.19287,0.05859c-0.11377,0-0.22461-0.05518-0.29199-0.15674l-0.73291-1.10498     c-0.10693-0.16113-0.06299-0.37842,0.09814-0.48486c0.1626-0.10742,0.37793-0.0625,0.48486,0.09814l0.73291,1.10498     C31.20507,11.86927,31.16113,12.08655,30.99999,12.193z" style="fill:#30302F;"/></g></g></g></svg>